<svg xmlns="http://www.w3.org/2000/svg" viewBox="0 0 120 40">
  <path d="M24.5,15.8c-1.2-0.7-2.6-1-4-1c-1.4,0-2.8,0.3-4,1c-1.2,0.7-2.2,1.6-2.9,2.8c-0.7,1.2-1.1,2.6-1.1,4c0,1.4,0.4,2.8,1.1,4c0.7,1.2,1.7,2.1,2.9,2.8c1.2,0.7,2.6,1,4,1c1.4,0,2.8-0.3,4-1c1.2-0.7,2.2-1.6,2.9-2.8c0.7-1.2,1.1-2.6,1.1-4c0-1.4-0.4-2.8-1.1-4C26.7,17.4,25.7,16.5,24.5,15.8z" fill="#2e3192"/>
  <path d="M40.5,15.8c-1.2-0.7-2.6-1-4-1c-1.4,0-2.8,0.3-4,1c-1.2,0.7-2.2,1.6-2.9,2.8c-0.7,1.2-1.1,2.6-1.1,4c0,1.4,0.4,2.8,1.1,4c0.7,1.2,1.7,2.1,2.9,2.8c1.2,0.7,2.6,1,4,1c1.4,0,2.8-0.3,4-1c1.2-0.7,2.2-1.6,2.9-2.8c0.7-1.2,1.1-2.6,1.1-4c0-1.4-0.4-2.8-1.1-4C42.7,17.4,41.7,16.5,40.5,15.8z" fill="#2e3192"/>
  <path d="M56.5,15.8c-1.2-0.7-2.6-1-4-1c-1.4,0-2.8,0.3-4,1c-1.2,0.7-2.2,1.6-2.9,2.8c-0.7,1.2-1.1,2.6-1.1,4c0,1.4,0.4,2.8,1.1,4c0.7,1.2,1.7,2.1,2.9,2.8c1.2,0.7,2.6,1,4,1c1.4,0,2.8-0.3,4-1c1.2-0.7,2.2-1.6,2.9-2.8c0.7-1.2,1.1-2.6,1.1-4c0-1.4-0.4-2.8-1.1-4C58.7,17.4,57.7,16.5,56.5,15.8z" fill="#2e3192"/>
  <path d="M72.5,15.8c-1.2-0.7-2.6-1-4-1c-1.4,0-2.8,0.3-4,1c-1.2,0.7-2.2,1.6-2.9,2.8c-0.7,1.2-1.1,2.6-1.1,4c0,1.4,0.4,2.8,1.1,4c0.7,1.2,1.7,2.1,2.9,2.8c1.2,0.7,2.6,1,4,1c1.4,0,2.8-0.3,4-1c1.2-0.7,2.2-1.6,2.9-2.8c0.7-1.2,1.1-2.6,1.1-4c0-1.4-0.4-2.8-1.1-4C74.7,17.4,73.7,16.5,72.5,15.8z" fill="#2e3192"/>
  <path d="M88.5,15.8c-1.2-0.7-2.6-1-4-1c-1.4,0-2.8,0.3-4,1c-1.2,0.7-2.2,1.6-2.9,2.8c-0.7,1.2-1.1,2.6-1.1,4c0,1.4,0.4,2.8,1.1,4c0.7,1.2,1.7,2.1,2.9,2.8c1.2,0.7,2.6,1,4,1c1.4,0,2.8-0.3,4-1c1.2-0.7,2.2-1.6,2.9-2.8c0.7-1.2,1.1-2.6,1.1-4c0-1.4-0.4-2.8-1.1-4C90.7,17.4,89.7,16.5,88.5,15.8z" fill="#2e3192"/>
  <path d="M104.5,15.8c-1.2-0.7-2.6-1-4-1c-1.4,0-2.8,0.3-4,1c-1.2,0.7-2.2,1.6-2.9,2.8c-0.7,1.2-1.1,2.6-1.1,4c0,1.4,0.4,2.8,1.1,4c0.7,1.2,1.7,2.1,2.9,2.8c1.2,0.7,2.6,1,4,1c1.4,0,2.8-0.3,4-1c1.2-0.7,2.2-1.6,2.9-2.8c0.7-1.2,1.1-2.6,1.1-4c0-1.4-0.4-2.8-1.1-4C106.7,17.4,105.7,16.5,104.5,15.8z" fill="#2e3192"/>
  <path d="M112.5,22.6c0,1.4,0.4,2.8,1.1,4c0.7,1.2,1.7,2.1,2.9,2.8c1.2,0.7,2.6,1,4,1" fill="#2e3192"/>
  <path d="M16.5,22.6c0-1.4-0.4-2.8-1.1-4c-0.7-1.2-1.7-2.1-2.9-2.8c-1.2-0.7-2.6-1-4-1" fill="#2e3192"/>
</svg>
